g NewMesh_tris_102
v -0.8049552 -0.8000083 0.4415264
v -0.4710342 -0.8411791 0.3863893
v -0.6993436 -0.8749083 0.4198799
v -0.3390028 -0.6550491 0.3865238
v -0.853981 -0.499238 0.4774335
v -0.4631049 -0.4299809 0.430998
v -0.3348698 -0.7977455 0.2084865
v -0.5570536 -0.3628388 -0.259687
v -0.3390028 -0.6550491 0.3865238
v -0.4631049 -0.4299809 0.430998
v -0.3348698 -0.7977455 0.2084865
v -0.3935556 -0.7210004 -0.3299173
v -0.8788599 -0.8275768 -0.2216931
v -0.3348698 -0.7977455 0.2084865
v -0.3935556 -0.7210004 -0.3299173
v -0.4710342 -0.8411791 0.3863893
v -0.6993436 -0.8749083 0.4198799
v -0.8025779 -0.8820934 0.3391118
v -0.853981 -0.499238 0.4774335
v -0.5570536 -0.3628388 -0.259687
v -0.4631049 -0.4299809 0.430998
v -0.9427166 -0.4358214 -0.1749244
v -0.8049552 -0.8000083 0.4415264
v -0.6993436 -0.8749083 0.4198799
v -0.8025779 -0.8820934 0.3391118
v -0.9427166 -0.4358214 -0.1749244
v -0.853981 -0.499238 0.4774335
v -0.8788599 -0.8275768 -0.2216931
v 0.6844044 -1.462814 0.164227
v 0.1907 -1.323929 0.250602
v 0.5448657 -1.359684 0.1788109
v -0.05550846 -1.462353 0.3339713
v 0.6809481 -1.764885 0.2193896
v 0.07563309 -1.714287 0.3540322
v -0.09176931 -1.33118 0.1506078
v -0.08961585 -1.834406 -0.3158234
v -0.05550846 -1.462353 0.3339713
v 0.07563309 -1.714287 0.3540322
v -0.09176931 -1.33118 0.1506078
v -0.2488749 -1.443807 -0.3618293
v 0.529371 -1.484889 -0.485144
v -0.09176931 -1.33118 0.1506078
v -0.2488749 -1.443807 -0.3618293
v 0.1907 -1.323929 0.250602
v 0.5448657 -1.359684 0.1788109
v 0.6635458 -1.387358 0.05874842
v 0.6809481 -1.764885 0.2193896
v -0.08961585 -1.834406 -0.3158234
v 0.07563309 -1.714287 0.3540322
v 0.5248692 -1.878338 -0.4132949
v 0.6844044 -1.462814 0.164227
v 0.5448657 -1.359684 0.1788109
v 0.6635458 -1.387358 0.05874842
v 0.5248692 -1.878338 -0.4132949
v 0.6809481 -1.764885 0.2193896
v 0.529371 -1.484889 -0.485144
v -0.8233513 -2.379426 0.5215809
v -1.432575 -2.290176 0.4652782
v -1.001824 -2.290495 0.5150058
v -1.718834 -2.455411 0.414302
v -0.8005353 -2.68352 0.4839811
v -1.539267 -2.696695 0.4066961
v -1.716553 -2.274592 0.2746913
v -1.477298 -2.605981 -0.2849817
v -1.718834 -2.455411 0.414302
v -1.539267 -2.696695 0.4066961
v -1.716553 -2.274592 0.2746913
v -1.700724 -2.225842 -0.2710856
v -0.7717233 -2.201756 -0.1203401
v -1.716553 -2.274592 0.2746913
v -1.700724 -2.225842 -0.2710856
v -1.432575 -2.290176 0.4652782
v -1.001824 -2.290495 0.5150058
v -0.822039 -2.275411 0.441271
v -0.8005353 -2.68352 0.4839811
v -1.477298 -2.605981 -0.2849817
v -1.539267 -2.696695 0.4066961
v -0.7420049 -2.597841 -0.1693146
v -0.8233513 -2.379426 0.5215809
v -1.001824 -2.290495 0.5150058
v -0.822039 -2.275411 0.441271
v -0.7420049 -2.597841 -0.1693146
v -0.8005353 -2.68352 0.4839811
v -0.7717233 -2.201756 -0.1203401
v -0.2273889 -2.847811 0.4490485
v 0.3654588 -2.949132 0.324547
v -0.05383389 -2.940276 0.4225077
v 0.6453617 -2.789586 0.2414276
v -0.2481199 -2.543284 0.4138876
v 0.472155 -2.544763 0.2538126
v 0.623436 -2.970176 0.1032396
v 0.329692 -2.633497 -0.4261255
v 0.6453617 -2.789586 0.2414276
v 0.472155 -2.544763 0.2538126
v 0.623436 -2.970176 0.1032396
v 0.5441098 -3.018029 -0.4370314
v -0.3556751 -3.023743 -0.1825221
v 0.623436 -2.970176 0.1032396
v 0.5441098 -3.018029 -0.4370314
v 0.3654588 -2.949132 0.324547
v -0.05383389 -2.940276 0.4225077
v -0.2400017 -2.951695 0.3695569
v -0.2481199 -2.543284 0.4138876
v 0.329692 -2.633497 -0.4261255
v 0.472155 -2.544763 0.2538126
v -0.3826777 -2.627094 -0.2283197
v -0.2273889 -2.847811 0.4490485
v -0.05383389 -2.940276 0.4225077
v -0.2400017 -2.951695 0.3695569
v -0.3826777 -2.627094 -0.2283197
v -0.2481199 -2.543284 0.4138876
v -0.3556751 -3.023743 -0.1825221
v 0.7515215 -0.07734694 -0.1739105
v 0.5988585 0.1164381 -0.4457865
v 0.6191411 -0.1052663 -0.4324048
v 0.69069 0.2108744 -0.2354107
v 0.7548037 0.1055579 -0.1240085
v 0.623468 0.1899888 -0.3897994
v 0.4728623 0.2023086 -0.01658456
v 0.7548037 0.1055579 -0.1240085
v 0.7515215 -0.07734694 -0.1739105
v 0.69069 0.2108744 -0.2354107
v -0.5889339 -0.1733729 0.4029289
v -0.6389627 0.1062976 0.456267
v -0.6886823 -0.07854624 0.4657756
v -0.7079906 -0.1883768 0.3429711
v -0.751368 -0.2033479 0.1579161
v -0.7110814 0.1007276 0.4396582
v 0.6191411 -0.1052663 -0.4324048
v 0.4366733 0.1720931 -0.3839913
v 0.5988585 0.1164381 -0.4457865
v 0.623468 0.1899888 -0.3897994
v 0.69069 0.2108744 -0.2354107
v 0.4728623 0.2023086 -0.01658456
v -0.6698933 0.09312259 0.09389145
v -0.6698933 0.09312259 0.09389145
v -0.7670757 -0.03165208 0.1475526
v -0.752188 0.09129623 0.2552974
v -0.6698933 0.09312259 0.09389145
v -0.6389627 0.1062976 0.456267
v -0.7110814 0.1007276 0.4396582
v -0.7670757 -0.03165208 0.1475526
v -0.7079906 -0.1883768 0.3429711
v -0.751368 -0.2033479 0.1579161
v -0.752188 0.09129623 0.2552974
v -0.6886823 -0.07854624 0.4657756
v -0.7110814 0.1007276 0.4396582

vn -0.5636494 -0.3328092 0.7560009
vn 0.3517781 -0.7384342 0.575298
vn 0.07137494 -0.7778401 0.6243964
vn 0.8178853 0.0491433 0.5732789
vn -0.5767322 0.4093826 0.7069554
vn 0.4617158 0.6353077 0.619034
vn 0.858341 -0.5126367 -0.02132012
vn 0.5038639 0.8637293 0.009667709
vn 0.8178853 0.0491433 0.5732789
vn 0.4617158 0.6353077 0.619034
vn 0.858341 -0.5126367 -0.02132012
vn 0.8918814 -0.413797 -0.1825371
vn -0.5542386 -0.8321553 -0.01837105
vn 0.858341 -0.5126367 -0.02132012
vn 0.8918814 -0.413797 -0.1825371
vn 0.3517781 -0.7384342 0.575298
vn 0.07137494 -0.7778401 0.6243964
vn -0.5552223 -0.8213235 0.1309824
vn -0.5767322 0.4093826 0.7069554
vn 0.5038639 0.8637293 0.009667709
vn 0.4617158 0.6353077 0.619034
vn -0.7868614 0.5947101 0.1648312
vn -0.5636494 -0.3328092 0.7560009
vn 0.07137494 -0.7778401 0.6243964
vn -0.5552223 -0.8213235 0.1309824
vn -0.7868614 0.5947101 0.1648312
vn -0.5767322 0.4093826 0.7069554
vn -0.5542386 -0.8321553 -0.01837105
vn 0.7112963 0.2866597 0.6417816
vn 0.09251849 0.8294486 0.5508678
vn 0.2748701 0.8071833 0.5223997
vn -0.3754196 0.1889654 0.9073876
vn 0.5268701 -0.5460127 0.6513662
vn -0.2052891 -0.5216373 0.8281008
vn -0.5107915 0.8446019 0.1604354
vn -0.4911405 -0.8303276 0.2633197
vn -0.3754196 0.1889654 0.9073876
vn -0.2052891 -0.5216373 0.8281008
vn -0.5107915 0.8446019 0.1604354
vn -0.6468038 0.7626367 -0.005495382
vn 0.5261932 0.7998873 -0.2886193
vn -0.5107915 0.8446019 0.1604354
vn -0.6468038 0.7626367 -0.005495382
vn 0.09251849 0.8294486 0.5508678
vn 0.2748701 0.8071833 0.5223997
vn 0.5810851 0.8043009 -0.1242584
vn 0.5268701 -0.5460127 0.6513662
vn -0.4911405 -0.8303276 0.2633197
vn -0.2052891 -0.5216373 0.8281008
vn 0.4749204 -0.8790979 0.04046543
vn 0.7112963 0.2866597 0.6417816
vn 0.2748701 0.8071833 0.5223997
vn 0.5810851 0.8043009 -0.1242584
vn 0.4749204 -0.8790979 0.04046543
vn 0.5268701 -0.5460127 0.6513662
vn 0.5261932 0.7998873 -0.2886193
vn 0.3677773 0.09759008 0.9247789
vn -0.1727665 0.6185749 0.7664965
vn -0.01885785 0.6116092 0.7909352
vn -0.5926563 -0.1230531 0.7960002
vn 0.3094049 -0.7263839 0.613706
vn -0.3306777 -0.7728677 0.5415974
vn -0.5761659 0.7807067 0.2419294
vn -0.3729023 -0.9139707 -0.1600045
vn -0.5926563 -0.1230531 0.7960002
vn -0.3306777 -0.7728677 0.5415974
vn -0.5761659 0.7807067 0.2419294
vn -0.6448766 0.7641806 0.01274137
vn 0.4146583 0.8992018 0.1396235
vn -0.5761659 0.7807067 0.2419294
vn -0.6448766 0.7641806 0.01274137
vn -0.1727665 0.6185749 0.7664965
vn -0.01885785 0.6116092 0.7909352
vn 0.4139255 0.8544995 0.3138412
vn 0.3094049 -0.7263839 0.613706
vn -0.3729023 -0.9139707 -0.1600045
vn -0.3306777 -0.7728677 0.5415974
vn 0.4857484 -0.8712301 -0.07075723
vn 0.3677773 0.09759008 0.9247789
vn -0.01885785 0.6116092 0.7909352
vn 0.4139255 0.8544995 0.3138412
vn 0.4857484 -0.8712301 -0.07075723
vn 0.3094049 -0.7263839 0.613706
vn 0.4146583 0.8992018 0.1396235
vn -0.2643146 -0.09094279 0.9601392
vn 0.2473332 -0.6226887 0.742351
vn 0.09637015 -0.6126546 0.7844534
vn 0.6842188 0.1100447 0.7209263
vn -0.224908 0.7311695 0.6440555
vn 0.4074169 0.7650916 0.4986444
vn 0.5866883 -0.7908233 0.174343
vn 0.3726418 0.9054807 -0.2030833
vn 0.6842188 0.1100447 0.7209263
vn 0.4074169 0.7650916 0.4986444
vn 0.5866883 -0.7908233 0.174343
vn 0.6291434 -0.7749057 -0.06082571
vn -0.4162736 -0.8896712 0.1876204
vn 0.5866883 -0.7908233 0.174343
vn 0.6291434 -0.7749057 -0.06082571
vn 0.2473332 -0.6226887 0.742351
vn 0.09637015 -0.6126546 0.7844534
vn -0.3948514 -0.8451357 0.3603305
vn -0.224908 0.7311695 0.6440555
vn 0.3726418 0.9054807 -0.2030833
vn 0.4074169 0.7650916 0.4986444
vn -0.4755011 0.8795843 -0.01517534
vn -0.2643146 -0.09094279 0.9601392
vn 0.09637015 -0.6126546 0.7844534
vn -0.3948514 -0.8451357 0.3603305
vn -0.4755011 0.8795843 -0.01517534
vn -0.224908 0.7311695 0.6440555
vn -0.4162736 -0.8896712 0.1876204
vn 0.8040475 -0.548658 0.2290903
vn 0.302158 0.19504 -0.9330917
vn 0.3316067 -0.5974996 -0.73009
vn 0.6132251 0.7797009 -0.1265767
vn 0.8640881 0.1972119 0.4630975
vn 0.4826329 0.691382 -0.5376396
vn 0.254281 0.7059702 0.6610201
vn 0.8640881 0.1972119 0.4630975
vn 0.8040475 -0.548658 0.2290903
vn 0.6132251 0.7797009 -0.1265767
vn 0.1951181 -0.7197722 0.6662259
vn 0.07767348 0.6498827 0.7560552
vn -0.3951728 -0.252167 0.8833177
vn -0.577159 -0.7481338 0.3273886
vn -0.6640556 -0.672493 -0.3267773
vn -0.6216505 0.5940127 0.5105878
vn 0.3316067 -0.5974996 -0.73009
vn -0.3146598 0.6315018 -0.708657
vn 0.302158 0.19504 -0.9330917
vn 0.4826329 0.691382 -0.5376396
vn 0.6132251 0.7797009 -0.1265767
vn 0.254281 0.7059702 0.6610201
vn -0.4579267 0.6312824 -0.6259278
vn -0.4579267 0.6312824 -0.6259278
vn -0.891292 0.02581029 -0.4526947
vn -0.7715764 0.6360275 0.01179232
vn -0.4579267 0.6312824 -0.6259278
vn 0.07767348 0.6498827 0.7560552
vn -0.6216505 0.5940127 0.5105878
vn -0.891292 0.02581029 -0.4526947
vn -0.577159 -0.7481338 0.3273886
vn -0.6640556 -0.672493 -0.3267773
vn -0.7715764 0.6360275 0.01179232
vn -0.3951728 -0.252167 0.8833177
vn -0.6216505 0.5940127 0.5105878

vt 0.451396 0.725193
vt 0.477858 0.789325
vt 0.471723 0.740358
vt 0.444369 0.818369
vt 0.388224 0.721617
vt 0.389931 0.810951
vt 0.483851 0.84027
vt 0.403112 0.966573
vt 0.444369 0.818369
vt 0.389931 0.810951
vt 0.483851 0.84027
vt 0.491566 0.961228
vt 0.641185 0.887852
vt 0.493438 0.88351
vt 0.571056 0.970353
vt 0.494505 0.83493
vt 0.529542 0.799742
vt 0.557487 0.800371
vt 0.201207 0.708098
vt 0.282932 0.859086
vt 0.286288 0.710014
vt 0.198037 0.848899
vt 0.451396 0.725193
vt 0.471723 0.740358
vt 0.47372 0.713067
vt 0.410094 0.579018
vt 0.388224 0.721617
vt 0.499798 0.595554
vt 0.451396 0.725193
vt 0.477858 0.789325
vt 0.471723 0.740358
vt 0.444369 0.818369
vt 0.388224 0.721617
vt 0.389931 0.810951
vt 0.483851 0.84027
vt 0.403112 0.966573
vt 0.444369 0.818369
vt 0.389931 0.810951
vt 0.483851 0.84027
vt 0.491566 0.961228
vt 0.641185 0.887852
vt 0.493438 0.88351
vt 0.571056 0.970353
vt 0.494505 0.83493
vt 0.529542 0.799742
vt 0.557487 0.800371
vt 0.201207 0.708098
vt 0.282932 0.859086
vt 0.286288 0.710014
vt 0.198037 0.848899
vt 0.451396 0.725193
vt 0.471723 0.740358
vt 0.47372 0.713067
vt 0.410094 0.579018
vt 0.388224 0.721617
vt 0.499798 0.595554
vt 0.451396 0.725193
vt 0.477858 0.789325
vt 0.471723 0.740358
vt 0.444369 0.818369
vt 0.388224 0.721617
vt 0.389931 0.810951
vt 0.483851 0.84027
vt 0.403112 0.966573
vt 0.444369 0.818369
vt 0.389931 0.810951
vt 0.483851 0.84027
vt 0.491566 0.961228
vt 0.641185 0.887852
vt 0.493438 0.88351
vt 0.571056 0.970353
vt 0.494505 0.83493
vt 0.529542 0.799742
vt 0.557487 0.800371
vt 0.201207 0.708098
vt 0.282932 0.859086
vt 0.286288 0.710014
vt 0.198037 0.848899
vt 0.451396 0.725193
vt 0.471723 0.740358
vt 0.47372 0.713067
vt 0.410094 0.579018
vt 0.388224 0.721617
vt 0.499798 0.595554
vt 0.451396 0.725193
vt 0.477858 0.789325
vt 0.471723 0.740358
vt 0.444369 0.818369
vt 0.388224 0.721617
vt 0.389931 0.810951
vt 0.483851 0.84027
vt 0.403112 0.966573
vt 0.444369 0.818369
vt 0.389931 0.810951
vt 0.483851 0.84027
vt 0.491566 0.961228
vt 0.641185 0.887852
vt 0.493438 0.88351
vt 0.571056 0.970353
vt 0.494505 0.83493
vt 0.529542 0.799742
vt 0.557487 0.800371
vt 0.201207 0.708098
vt 0.282932 0.859086
vt 0.286288 0.710014
vt 0.198037 0.848899
vt 0.451396 0.725193
vt 0.471723 0.740358
vt 0.47372 0.713067
vt 0.410094 0.579018
vt 0.388224 0.721617
vt 0.499798 0.595554
vt 0.59038 0.294146
vt 0.544146 0.287588
vt 0.558028 0.312328
vt 0.565908 0.264714
vt 0.586271 0.270379
vt 0.547434 0.275873
vt 0.560151 0.431249
vt 0.563057 0.473125
vt 0.586996 0.48074
vt 0.541702 0.467776
vt 0.639313 0.306108
vt 0.60904 0.286731
vt 0.633916 0.288605
vt 0.653126 0.297512
vt 0.67651 0.306195
vt 0.612748 0.277811
vt 0.625167 0.48889
vt 0.666661 0.476126
vt 0.654003 0.495763
vt 0.66607 0.500301
vt 0.687488 0.50911
vt 0.7159 0.477238
vt 0.706652 0.334582
vt 0.706652 0.334582
vt 0.699126 0.315063
vt 0.721673 0.317773
vt 0.706652 0.334582
vt 0.752753 0.324473
vt 0.7476 0.315662
vt 0.570123 0.356791
vt 0.540794 0.342247
vt 0.549671 0.364815
vt 0.578201 0.337537
vt 0.546496 0.321932
vt 0.568778 0.315403

vt1 0.9878364 0.60562
vt1 0.7549193 0.5339924
vt1 0.9215173 0.5392497
vt1 0.6395794 0.6493193
vt1 0.9878071 0.8249366
vt1 0.702146 0.8249366
vt1 0.5973733 0.4917689
vt1 0.3076228 0.4927225
vt1 0.4757863 0.9956713
vt1 0.2893773 0.9929023
vt1 0.5934671 0.8827341
vt1 0.5934671 0.4917689
vt1 0.3611085 0.008380721
vt1 0.05158346 0.3852022
vt1 0.00390625 0.00390625
vt1 0.174711 0.4878626
vt1 0.3381756 0.4770099
vt1 0.3954712 0.3984647
vt1 0.00390625 0.982489
vt1 0.3076228 0.4927225
vt1 0.2893773 0.9929023
vt1 0.02113891 0.510065
vt1 0.4495552 0.4802295
vt1 0.3381756 0.4770099
vt1 0.3954712 0.3984647
vt1 0.6807203 0.00390625
vt1 0.6723387 0.484118
vt1 0.3611085 0.008380721
vt1 0.9878364 0.60562
vt1 0.7549193 0.5339924
vt1 0.9215173 0.5392497
vt1 0.6395794 0.6493193
vt1 0.9878071 0.8249366
vt1 0.702146 0.8249366
vt1 0.5973733 0.4917689
vt1 0.3076228 0.4927225
vt1 0.4757863 0.9956713
vt1 0.2893773 0.9929023
vt1 0.5934671 0.8827341
vt1 0.5934671 0.4917689
vt1 0.3611085 0.008380721
vt1 0.05158346 0.3852022
vt1 0.00390625 0.00390625
vt1 0.174711 0.4878626
vt1 0.3381756 0.4770099
vt1 0.3954712 0.3984647
vt1 0.00390625 0.982489
vt1 0.3076228 0.4927225
vt1 0.2893773 0.9929023
vt1 0.02113891 0.510065
vt1 0.4495552 0.4802295
vt1 0.3381756 0.4770099
vt1 0.3954712 0.3984647
vt1 0.6807203 0.00390625
vt1 0.6723387 0.484118
vt1 0.3611085 0.008380721
vt1 0.9878364 0.60562
vt1 0.7549193 0.5339924
vt1 0.9215173 0.5392497
vt1 0.6395794 0.6493193
vt1 0.9878071 0.8249366
vt1 0.702146 0.8249366
vt1 0.5973733 0.4917689
vt1 0.3076228 0.4927225
vt1 0.4757863 0.9956713
vt1 0.2893773 0.9929023
vt1 0.5934671 0.8827341
vt1 0.5934671 0.4917689
vt1 0.3611085 0.008380721
vt1 0.05158346 0.3852022
vt1 0.00390625 0.00390625
vt1 0.174711 0.4878626
vt1 0.3381756 0.4770099
vt1 0.3954712 0.3984647
vt1 0.00390625 0.982489
vt1 0.3076228 0.4927225
vt1 0.2893773 0.9929023
vt1 0.02113891 0.510065
vt1 0.4495552 0.4802295
vt1 0.3381756 0.4770099
vt1 0.3954712 0.3984647
vt1 0.6807203 0.00390625
vt1 0.6723387 0.484118
vt1 0.3611085 0.008380721
vt1 0.9878364 0.60562
vt1 0.7549193 0.5339924
vt1 0.9215173 0.5392497
vt1 0.6395794 0.6493193
vt1 0.9878071 0.8249366
vt1 0.702146 0.8249366
vt1 0.5973733 0.4917689
vt1 0.3076228 0.4927225
vt1 0.4757863 0.9956713
vt1 0.2893773 0.9929023
vt1 0.5934671 0.8827341
vt1 0.5934671 0.4917689
vt1 0.3611085 0.008380721
vt1 0.05158346 0.3852022
vt1 0.00390625 0.00390625
vt1 0.174711 0.4878626
vt1 0.3381756 0.4770099
vt1 0.3954712 0.3984647
vt1 0.00390625 0.982489
vt1 0.3076228 0.4927225
vt1 0.2893773 0.9929023
vt1 0.02113891 0.510065
vt1 0.4495552 0.4802295
vt1 0.3381756 0.4770099
vt1 0.3954712 0.3984647
vt1 0.6807203 0.00390625
vt1 0.6723387 0.484118
vt1 0.3611085 0.008380721
vt1 0.59038 0.294146
vt1 0.544146 0.287588
vt1 0.558028 0.312328
vt1 0.565908 0.264714
vt1 0.586271 0.270379
vt1 0.547434 0.275873
vt1 0.560151 0.431249
vt1 0.563057 0.473125
vt1 0.586996 0.48074
vt1 0.541702 0.467776
vt1 0.639313 0.306108
vt1 0.60904 0.286731
vt1 0.633916 0.288605
vt1 0.653126 0.297512
vt1 0.67651 0.306195
vt1 0.612748 0.277811
vt1 0.625167 0.48889
vt1 0.666661 0.476126
vt1 0.654003 0.495763
vt1 0.66607 0.500301
vt1 0.687488 0.50911
vt1 0.7159 0.477238
vt1 0.706652 0.334582
vt1 0.706652 0.334582
vt1 0.699126 0.315063
vt1 0.721673 0.317773
vt1 0.706652 0.334582
vt1 0.752753 0.324473
vt1 0.7476 0.315662
vt1 0.570123 0.356791
vt1 0.540794 0.342247
vt1 0.549671 0.364815
vt1 0.578201 0.337537
vt1 0.546496 0.321932
vt1 0.568778 0.315403

vt2 0.9878364 0.60562
vt2 0.7549193 0.5339924
vt2 0.9215173 0.5392497
vt2 0.6395794 0.6493193
vt2 0.9878071 0.8249366
vt2 0.702146 0.8249366
vt2 0.5973733 0.4917689
vt2 0.3076228 0.4927225
vt2 0.4757863 0.9956713
vt2 0.2893773 0.9929023
vt2 0.5934671 0.8827341
vt2 0.5934671 0.4917689
vt2 0.3611085 0.008380721
vt2 0.05158346 0.3852022
vt2 0.00390625 0.00390625
vt2 0.174711 0.4878626
vt2 0.3381756 0.4770099
vt2 0.3954712 0.3984647
vt2 0.00390625 0.982489
vt2 0.3076228 0.4927225
vt2 0.2893773 0.9929023
vt2 0.02113891 0.510065
vt2 0.4495552 0.4802295
vt2 0.3381756 0.4770099
vt2 0.3954712 0.3984647
vt2 0.6807203 0.00390625
vt2 0.6723387 0.484118
vt2 0.3611085 0.008380721
vt2 0.9878364 0.60562
vt2 0.7549193 0.5339924
vt2 0.9215173 0.5392497
vt2 0.6395794 0.6493193
vt2 0.9878071 0.8249366
vt2 0.702146 0.8249366
vt2 0.5973733 0.4917689
vt2 0.3076228 0.4927225
vt2 0.4757863 0.9956713
vt2 0.2893773 0.9929023
vt2 0.5934671 0.8827341
vt2 0.5934671 0.4917689
vt2 0.3611085 0.008380721
vt2 0.05158346 0.3852022
vt2 0.00390625 0.00390625
vt2 0.174711 0.4878626
vt2 0.3381756 0.4770099
vt2 0.3954712 0.3984647
vt2 0.00390625 0.982489
vt2 0.3076228 0.4927225
vt2 0.2893773 0.9929023
vt2 0.02113891 0.510065
vt2 0.4495552 0.4802295
vt2 0.3381756 0.4770099
vt2 0.3954712 0.3984647
vt2 0.6807203 0.00390625
vt2 0.6723387 0.484118
vt2 0.3611085 0.008380721
vt2 0.9878364 0.60562
vt2 0.7549193 0.5339924
vt2 0.9215173 0.5392497
vt2 0.6395794 0.6493193
vt2 0.9878071 0.8249366
vt2 0.702146 0.8249366
vt2 0.5973733 0.4917689
vt2 0.3076228 0.4927225
vt2 0.4757863 0.9956713
vt2 0.2893773 0.9929023
vt2 0.5934671 0.8827341
vt2 0.5934671 0.4917689
vt2 0.3611085 0.008380721
vt2 0.05158346 0.3852022
vt2 0.00390625 0.00390625
vt2 0.174711 0.4878626
vt2 0.3381756 0.4770099
vt2 0.3954712 0.3984647
vt2 0.00390625 0.982489
vt2 0.3076228 0.4927225
vt2 0.2893773 0.9929023
vt2 0.02113891 0.510065
vt2 0.4495552 0.4802295
vt2 0.3381756 0.4770099
vt2 0.3954712 0.3984647
vt2 0.6807203 0.00390625
vt2 0.6723387 0.484118
vt2 0.3611085 0.008380721
vt2 0.9878364 0.60562
vt2 0.7549193 0.5339924
vt2 0.9215173 0.5392497
vt2 0.6395794 0.6493193
vt2 0.9878071 0.8249366
vt2 0.702146 0.8249366
vt2 0.5973733 0.4917689
vt2 0.3076228 0.4927225
vt2 0.4757863 0.9956713
vt2 0.2893773 0.9929023
vt2 0.5934671 0.8827341
vt2 0.5934671 0.4917689
vt2 0.3611085 0.008380721
vt2 0.05158346 0.3852022
vt2 0.00390625 0.00390625
vt2 0.174711 0.4878626
vt2 0.3381756 0.4770099
vt2 0.3954712 0.3984647
vt2 0.00390625 0.982489
vt2 0.3076228 0.4927225
vt2 0.2893773 0.9929023
vt2 0.02113891 0.510065
vt2 0.4495552 0.4802295
vt2 0.3381756 0.4770099
vt2 0.3954712 0.3984647
vt2 0.6807203 0.00390625
vt2 0.6723387 0.484118
vt2 0.3611085 0.008380721
vt2 0.59038 0.294146
vt2 0.544146 0.287588
vt2 0.558028 0.312328
vt2 0.565908 0.264714
vt2 0.586271 0.270379
vt2 0.547434 0.275873
vt2 0.560151 0.431249
vt2 0.563057 0.473125
vt2 0.586996 0.48074
vt2 0.541702 0.467776
vt2 0.639313 0.306108
vt2 0.60904 0.286731
vt2 0.633916 0.288605
vt2 0.653126 0.297512
vt2 0.67651 0.306195
vt2 0.612748 0.277811
vt2 0.625167 0.48889
vt2 0.666661 0.476126
vt2 0.654003 0.495763
vt2 0.66607 0.500301
vt2 0.687488 0.50911
vt2 0.7159 0.477238
vt2 0.706652 0.334582
vt2 0.706652 0.334582
vt2 0.699126 0.315063
vt2 0.721673 0.317773
vt2 0.706652 0.334582
vt2 0.752753 0.324473
vt2 0.7476 0.315662
vt2 0.570123 0.356791
vt2 0.540794 0.342247
vt2 0.549671 0.364815
vt2 0.578201 0.337537
vt2 0.546496 0.321932
vt2 0.568778 0.315403


usemtl CSE_BigRock_01_Dif
usemap CSE_BigRock_01_Dif
f 2/2/2 1/1/1 3/3/3
f 4/4/4 1/1/1 2/2/2
f 4/4/4 5/5/5 1/1/1
f 4/4/4 6/6/6 5/5/5
f 4/4/4 2/2/2 7/7/7
f 9/9/9 8/8/8 10/10/10
f 11/11/11 8/8/8 9/9/9
f 12/12/12 8/8/8 11/11/11
f 14/14/14 13/13/13 15/15/15
f 16/16/16 13/13/13 14/14/14
f 17/17/17 13/13/13 16/16/16
f 18/18/18 13/13/13 17/17/17
f 20/20/20 19/19/19 21/21/21
f 22/22/22 19/19/19 20/20/20
f 24/24/24 23/23/23 25/25/25
f 23/23/23 26/26/26 25/25/25
f 23/23/23 27/27/27 26/26/26
f 25/25/25 26/26/26 28/28/28
f 30/30/30 29/29/29 31/31/31
f 32/32/32 29/29/29 30/30/30
f 32/32/32 33/33/33 29/29/29
f 32/32/32 34/34/34 33/33/33
f 32/32/32 30/30/30 35/35/35
f 37/37/37 36/36/36 38/38/38
f 39/39/39 36/36/36 37/37/37
f 40/40/40 36/36/36 39/39/39
f 42/42/42 41/41/41 43/43/43
f 44/44/44 41/41/41 42/42/42
f 45/45/45 41/41/41 44/44/44
f 46/46/46 41/41/41 45/45/45
f 48/48/48 47/47/47 49/49/49
f 50/50/50 47/47/47 48/48/48
f 52/52/52 51/51/51 53/53/53
f 51/51/51 54/54/54 53/53/53
f 51/51/51 55/55/55 54/54/54
f 53/53/53 54/54/54 56/56/56
f 58/58/58 57/57/57 59/59/59
f 60/60/60 57/57/57 58/58/58
f 60/60/60 61/61/61 57/57/57
f 60/60/60 62/62/62 61/61/61
f 60/60/60 58/58/58 63/63/63
f 65/65/65 64/64/64 66/66/66
f 67/67/67 64/64/64 65/65/65
f 68/68/68 64/64/64 67/67/67
f 70/70/70 69/69/69 71/71/71
f 72/72/72 69/69/69 70/70/70
f 73/73/73 69/69/69 72/72/72
f 74/74/74 69/69/69 73/73/73
f 76/76/76 75/75/75 77/77/77
f 78/78/78 75/75/75 76/76/76
f 80/80/80 79/79/79 81/81/81
f 79/79/79 82/82/82 81/81/81
f 79/79/79 83/83/83 82/82/82
f 81/81/81 82/82/82 84/84/84
f 86/86/86 85/85/85 87/87/87
f 88/88/88 85/85/85 86/86/86
f 88/88/88 89/89/89 85/85/85
f 88/88/88 90/90/90 89/89/89
f 88/88/88 86/86/86 91/91/91
f 93/93/93 92/92/92 94/94/94
f 95/95/95 92/92/92 93/93/93
f 96/96/96 92/92/92 95/95/95
f 98/98/98 97/97/97 99/99/99
f 100/100/100 97/97/97 98/98/98
f 101/101/101 97/97/97 100/100/100
f 102/102/102 97/97/97 101/101/101
f 104/104/104 103/103/103 105/105/105
f 106/106/106 103/103/103 104/104/104
f 108/108/108 107/107/107 109/109/109
f 107/107/107 110/110/110 109/109/109
f 107/107/107 111/111/111 110/110/110
f 109/109/109 110/110/110 112/112/112
f 114/114/114 113/113/113 115/115/115
f 116/116/116 113/113/113 114/114/114
f 116/116/116 117/117/117 113/113/113
f 114/114/114 118/118/118 116/116/116
f 120/120/120 119/119/119 121/121/121
f 120/120/120 122/122/122 119/119/119
f 119/119/119 123/123/123 121/121/121
f 119/119/119 124/124/124 123/123/123
f 124/124/124 125/125/125 123/123/123
f 126/126/126 123/123/123 125/125/125
f 126/126/126 127/127/127 123/123/123
f 128/128/128 125/125/125 124/124/124
f 123/123/123 129/129/129 121/121/121
f 123/123/123 127/127/127 129/129/129
f 130/130/130 129/129/129 127/127/127
f 130/130/130 131/131/131 129/129/129
f 132/132/132 131/131/131 130/130/130
f 132/132/132 130/130/130 133/133/133
f 133/133/133 130/130/130 134/134/134
f 134/134/134 130/130/130 135/135/135
f 130/130/130 127/127/127 136/136/136
f 136/136/136 127/127/127 137/137/137
f 137/137/137 138/138/138 135/135/135
f 140/140/140 139/139/139 138/138/138
f 140/140/140 134/134/134 139/139/139
f 140/140/140 138/138/138 141/141/141
f 143/143/143 142/142/142 144/144/144
f 143/143/143 145/145/145 142/142/142
f 146/146/146 145/145/145 143/143/143
f 146/146/146 147/147/147 145/145/145

