g NewMesh_tris_12
v -0.6687517 0.1391588 0.3246593
v -0.6959286 -0.09329964 0.2193868
v -0.299923 0.2551985 -0.5459476
v -0.4027447 -0.4658417 -0.4009236
v -0.6687517 0.1391588 0.3246593
v -0.3351654 -0.06120965 0.5246829
v -0.6959286 -0.09329964 0.2193868
v -0.4027447 -0.4658417 -0.4009236
v 0.04515041 -0.1046702 0.7723636
v -0.04881636 0.1489781 0.7913991
v 0.7340894 -0.4946803 0.1679326
v 0.7533147 0.2896076 -0.03777496
v 0.04515041 -0.1046702 0.7723636
v -0.04881636 0.1489781 0.7913991
v 0.7340894 -0.4946803 0.1679326
v -0.04881636 0.1489781 0.7913991
v -0.299923 0.2551985 -0.5459476
v 0.7533147 0.2896076 -0.03777496
v -0.6687517 0.1391588 0.3246593

vn -0.779063 0.5148871 0.3577037
vn -0.8990154 -0.3982855 0.1820436
vn -0.5902922 0.7866458 -0.1809522
vn -0.7591119 -0.6509476 0.004050036
vn -0.779063 0.5148871 0.3577037
vn -0.5047362 -0.5640798 0.6534948
vn -0.8990154 -0.3982855 0.1820436
vn -0.7591119 -0.6509476 0.004050036
vn 0.1147341 -0.4261865 0.89733
vn -0.06215777 0.511228 0.8571944
vn 0.3994973 -0.4925585 0.7731675
vn 0.4044094 0.7573755 0.5126748
vn 0.1147341 -0.4261865 0.89733
vn -0.06215777 0.511228 0.8571944
vn 0.3994973 -0.4925585 0.7731675
vn -0.06215777 0.511228 0.8571944
vn -0.5902922 0.7866458 -0.1809522
vn 0.4044094 0.7573755 0.5126748
vn -0.779063 0.5148871 0.3577037

vt 0.454512 0.412078
vt 0.431327 0.432435
vt 0.478235 0.527958
vt 0.377126 0.503628
vt 0.454512 0.412078
vt 0.404904 0.388941
vt 0.431327 0.432435
vt 0.377126 0.503628
vt 0.369188 0.357926
vt 0.393055 0.336944
vt 0.262308 0.387153
vt 0.268068 0.278787
vt 0.369188 0.357926
vt 0.393055 0.336944
vt 0.262308 0.387153
vt 0.49238 0.416851
vt 0.636802 0.371983
vt 0.532811 0.294586
vt 0.570051 0.453748

vt1 0.2918924 0.38041
vt1 0.1920141 0.3621685
vt1 0.2750055 0.00390625
vt1 0.00390625 0.1171738
vt1 0.4888774 0.8687588
vt1 0.3240997 0.8158762
vt1 0.5053773 0.7685335
vt1 0.5069903 0.45955
vt1 0.1441202 0.827841
vt1 0.1872742 0.9261408
vt1 0.00390625 0.45955
vt1 0.7378682 0.00390625
vt1 0.6992062 0.4556437
vt1 0.5930272 0.4403047
vt1 0.9952347 0.1955409
vt1 0.5930272 0.4403047
vt1 0.2750055 0.00390625
vt1 0.7378682 0.00390625
vt1 0.2918924 0.38041

vt2 0.2918924 0.38041
vt2 0.1920141 0.3621685
vt2 0.2750055 0.00390625
vt2 0.00390625 0.1171738
vt2 0.4888774 0.8687588
vt2 0.3240997 0.8158762
vt2 0.5053773 0.7685335
vt2 0.5069903 0.45955
vt2 0.1441202 0.827841
vt2 0.1872742 0.9261408
vt2 0.00390625 0.45955
vt2 0.7378682 0.00390625
vt2 0.6992062 0.4556437
vt2 0.5930272 0.4403047
vt2 0.9952347 0.1955409
vt2 0.5930272 0.4403047
vt2 0.2750055 0.00390625
vt2 0.7378682 0.00390625
vt2 0.2918924 0.38041


usemtl CSE_BigRock_01_Dif
usemap CSE_BigRock_01_Dif
f 2/2/2 1/1/1 3/3/3
f 2/2/2 3/3/3 4/4/4
f 6/6/6 5/5/5 7/7/7
f 6/6/6 7/7/7 8/8/8
f 6/6/6 8/8/8 9/9/9
f 6/6/6 9/9/9 10/10/10
f 6/6/6 10/10/10 5/5/5
f 9/9/9 8/8/8 11/11/11
f 13/13/13 12/12/12 14/14/14
f 13/13/13 15/15/15 12/12/12
f 17/17/17 16/16/16 18/18/18
f 17/17/17 19/19/19 16/16/16

