g NewMesh_tris_36
v -4.654674 1.246391 -2.186958
v -5.751379 1.270042 -2.483966
v -4.974115 1.281562 -2.483927
v -6.271189 1.215161 -1.931322
v -4.620914 1.136082 -1.170658
v -5.952365 1.143833 -1.125587
v -6.294014 0.7384381 -2.523641
v -5.974378 -1.17675 -1.376736
v -6.271189 1.215161 -1.931322
v -5.952365 1.143833 -1.125587
v -6.294014 0.7384381 -2.523641
v -6.3703 -1.079199 -2.645939
v -4.685677 -0.9120486 -2.731606
v -6.294014 0.7384381 -2.523641
v -6.3703 -1.079199 -2.645939
v -5.751379 1.270042 -2.483966
v -4.974115 1.281562 -2.483927
v -4.667803 0.9721602 -2.527685
v -4.620914 1.136082 -1.170658
v -5.974378 -1.17675 -1.376736
v -5.952365 1.143833 -1.125587
v -4.641704 -1.05573 -1.407869
v -4.654674 1.246391 -2.186958
v -4.974115 1.281562 -2.483927
v -4.667803 0.9721602 -2.527685
v -4.641704 -1.05573 -1.407869
v -4.620914 1.136082 -1.170658
v -4.685677 -0.9120486 -2.731606
v -0.248625 1.181351 -0.2494939
v 0.2195609 1.145166 -0.4633659
v 0.4926505 1.111812 -0.3704119
v -0.4098308 1.194217 0.2287297
v 0.790756 1.068917 0.2379204
v 0.003192179 1.156658 0.630042
v -0.6205373 0.7587942 -0.09703833
v 0.3714433 0.8613387 -0.5578068
v -0.230892 -0.8308411 0.6046096
v -0.8185295 -0.7905733 -0.05594911
v 0.5696608 -0.808293 0.2138988
v 0.1813768 -0.7524221 -0.5784575
v 0.2195609 1.145166 -0.4633659
v -0.248625 1.181351 -0.2494939
v -0.6205373 0.7587942 -0.09703833
v -0.8185295 -0.7905733 -0.05594911
v 0.3714433 0.8613387 -0.5578068
v 0.1813768 -0.7524221 -0.5784575
v -0.230892 -0.8308411 0.6046096
v 0.003192179 1.156658 0.630042
v 0.790756 1.068917 0.2379204
v 0.5696608 -0.808293 0.2138988

vn 0.698086 0.7097103 -0.09480043
vn -0.1662094 0.7591399 -0.6293496
vn 0.1209184 0.770686 -0.6256371
vn -0.7355469 0.6725042 0.08190764
vn 0.5993916 0.5117706 0.615484
vn -0.4631568 0.5438454 0.6997984
vn -0.7724972 0.2160742 -0.5971265
vn -0.6156754 -0.08466267 0.7834386
vn -0.7355469 0.6725042 0.08190764
vn -0.4631568 0.5438454 0.6997984
vn -0.7724972 0.2160742 -0.5971265
vn -0.8402655 0.04560998 -0.5402533
vn 0.6595143 0.06205542 -0.7491261
vn -0.7724972 0.2160742 -0.5971265
vn -0.8402655 0.04560998 -0.5402533
vn -0.1662094 0.7591399 -0.6293496
vn 0.1209184 0.770686 -0.6256371
vn 0.6782527 0.2041963 -0.7058875
vn 0.5993916 0.5117706 0.615484
vn -0.6156754 -0.08466267 0.7834386
vn -0.4631568 0.5438454 0.6997984
vn 0.7092655 -0.08250853 0.7000962
vn 0.698086 0.7097103 -0.09480043
vn 0.1209184 0.770686 -0.6256371
vn 0.6782527 0.2041963 -0.7058875
vn 0.7092655 -0.08250853 0.7000962
vn 0.5993916 0.5117706 0.615484
vn 0.6595143 0.06205542 -0.7491261
vn -0.389195 0.7360822 -0.5538144
vn -0.08405051 0.7189616 -0.689949
vn 0.6259468 0.6330996 -0.455385
vn -0.6097937 0.7346233 0.2974565
vn 0.8327543 0.484148 0.2685535
vn -0.09237397 0.6181355 0.7806252
vn -0.9481429 0.2137989 -0.2351914
vn 0.3283813 0.0659172 -0.9422423
vn -0.2442594 0.01187069 0.9696373
vn -0.9844815 0.1016651 -0.1430395
vn 0.9275085 -0.1138115 0.3560548
vn 0.2796422 -0.03061829 -0.9596159
vn -0.08405051 0.7189616 -0.689949
vn -0.389195 0.7360822 -0.5538144
vn -0.9481429 0.2137989 -0.2351914
vn -0.9844815 0.1016651 -0.1430395
vn 0.3283813 0.0659172 -0.9422423
vn 0.2796422 -0.03061829 -0.9596159
vn -0.2442594 0.01187069 0.9696373
vn -0.09237397 0.6181355 0.7806252
vn 0.8327543 0.484148 0.2685535
vn 0.9275085 -0.1138115 0.3560548

vt 0.451396 0.725193
vt 0.477858 0.789325
vt 0.471723 0.740358
vt 0.444369 0.818369
vt 0.388224 0.721617
vt 0.389931 0.810951
vt 0.483851 0.84027
vt 0.403112 0.966573
vt 0.444369 0.818369
vt 0.389931 0.810951
vt 0.483851 0.84027
vt 0.491566 0.961228
vt 0.641185 0.887852
vt 0.493438 0.88351
vt 0.571056 0.970353
vt 0.494505 0.83493
vt 0.529542 0.799742
vt 0.557487 0.800371
vt 0.201207 0.708098
vt 0.282932 0.859086
vt 0.286288 0.710014
vt 0.198037 0.848899
vt 0.451396 0.725193
vt 0.471723 0.740358
vt 0.47372 0.713067
vt 0.410094 0.579018
vt 0.388224 0.721617
vt 0.499798 0.595554
vt 0.705207 0.376399
vt 0.726462 0.346806
vt 0.722962 0.32847
vt 0.672819 0.374949
vt 0.691482 0.294328
vt 0.646516 0.343314
vt 0.680866 0.411933
vt 0.744457 0.331796
vt 0.558243 0.463911
vt 0.610157 0.504976
vt 0.800835 0.214954
vt 0.837009 0.265309
vt 0.670252 0.263576
vt 0.63598 0.250825
vt 0.600211 0.27153
vt 0.555693 0.372917
vt 0.676614 0.286483
vt 0.633101 0.393109
vt 0.753935 0.327656
vt 0.668318 0.440734
vt 0.718272 0.478556
vt 0.799137 0.371753

vt1 0.9878364 0.60562
vt1 0.7549193 0.5339924
vt1 0.9215173 0.5392497
vt1 0.6395794 0.6493193
vt1 0.9878071 0.8249366
vt1 0.702146 0.8249366
vt1 0.5973733 0.4917689
vt1 0.3076228 0.4927225
vt1 0.4757863 0.9956713
vt1 0.2893773 0.9929023
vt1 0.5934671 0.8827341
vt1 0.5934671 0.4917689
vt1 0.3611085 0.008380721
vt1 0.05158346 0.3852022
vt1 0.00390625 0.00390625
vt1 0.174711 0.4878626
vt1 0.3381756 0.4770099
vt1 0.3954712 0.3984647
vt1 0.00390625 0.982489
vt1 0.3076228 0.4927225
vt1 0.2893773 0.9929023
vt1 0.02113891 0.510065
vt1 0.4495552 0.4802295
vt1 0.3381756 0.4770099
vt1 0.3954712 0.3984647
vt1 0.6807203 0.00390625
vt1 0.6723387 0.484118
vt1 0.3611085 0.008380721
vt1 0.705207 0.376399
vt1 0.726462 0.346806
vt1 0.722962 0.32847
vt1 0.672819 0.374949
vt1 0.691482 0.294328
vt1 0.646516 0.343314
vt1 0.680866 0.411933
vt1 0.744457 0.331796
vt1 0.558243 0.463911
vt1 0.610157 0.504976
vt1 0.800835 0.214954
vt1 0.837009 0.265309
vt1 0.670252 0.263576
vt1 0.63598 0.250825
vt1 0.600211 0.27153
vt1 0.555693 0.372917
vt1 0.676614 0.286483
vt1 0.633101 0.393109
vt1 0.753935 0.327656
vt1 0.668318 0.440734
vt1 0.718272 0.478556
vt1 0.799137 0.371753

vt2 0.9878364 0.60562
vt2 0.7549193 0.5339924
vt2 0.9215173 0.5392497
vt2 0.6395794 0.6493193
vt2 0.9878071 0.8249366
vt2 0.702146 0.8249366
vt2 0.5973733 0.4917689
vt2 0.3076228 0.4927225
vt2 0.4757863 0.9956713
vt2 0.2893773 0.9929023
vt2 0.5934671 0.8827341
vt2 0.5934671 0.4917689
vt2 0.3611085 0.008380721
vt2 0.05158346 0.3852022
vt2 0.00390625 0.00390625
vt2 0.174711 0.4878626
vt2 0.3381756 0.4770099
vt2 0.3954712 0.3984647
vt2 0.00390625 0.982489
vt2 0.3076228 0.4927225
vt2 0.2893773 0.9929023
vt2 0.02113891 0.510065
vt2 0.4495552 0.4802295
vt2 0.3381756 0.4770099
vt2 0.3954712 0.3984647
vt2 0.6807203 0.00390625
vt2 0.6723387 0.484118
vt2 0.3611085 0.008380721
vt2 0.705207 0.376399
vt2 0.726462 0.346806
vt2 0.722962 0.32847
vt2 0.672819 0.374949
vt2 0.691482 0.294328
vt2 0.646516 0.343314
vt2 0.680866 0.411933
vt2 0.744457 0.331796
vt2 0.558243 0.463911
vt2 0.610157 0.504976
vt2 0.800835 0.214954
vt2 0.837009 0.265309
vt2 0.670252 0.263576
vt2 0.63598 0.250825
vt2 0.600211 0.27153
vt2 0.555693 0.372917
vt2 0.676614 0.286483
vt2 0.633101 0.393109
vt2 0.753935 0.327656
vt2 0.668318 0.440734
vt2 0.718272 0.478556
vt2 0.799137 0.371753


usemtl CSE_BigRock_01_Dif
usemap CSE_BigRock_01_Dif
f 2/2/2 1/1/1 3/3/3
f 4/4/4 1/1/1 2/2/2
f 4/4/4 5/5/5 1/1/1
f 4/4/4 6/6/6 5/5/5
f 4/4/4 2/2/2 7/7/7
f 9/9/9 8/8/8 10/10/10
f 11/11/11 8/8/8 9/9/9
f 12/12/12 8/8/8 11/11/11
f 14/14/14 13/13/13 15/15/15
f 16/16/16 13/13/13 14/14/14
f 17/17/17 13/13/13 16/16/16
f 18/18/18 13/13/13 17/17/17
f 20/20/20 19/19/19 21/21/21
f 22/22/22 19/19/19 20/20/20
f 24/24/24 23/23/23 25/25/25
f 23/23/23 26/26/26 25/25/25
f 23/23/23 27/27/27 26/26/26
f 25/25/25 26/26/26 28/28/28
f 30/30/30 29/29/29 31/31/31
f 29/29/29 32/32/32 31/31/31
f 31/31/31 32/32/32 33/33/33
f 33/33/33 32/32/32 34/34/34
f 35/35/35 32/32/32 29/29/29
f 36/36/36 30/30/30 31/31/31
f 34/34/34 32/32/32 37/37/37
f 32/32/32 35/35/35 37/37/37
f 35/35/35 38/38/38 37/37/37
f 39/39/39 31/31/31 33/33/33
f 36/36/36 31/31/31 39/39/39
f 40/40/40 36/36/36 39/39/39
f 42/42/42 41/41/41 43/43/43
f 43/43/43 41/41/41 44/44/44
f 41/41/41 45/45/45 44/44/44
f 44/44/44 45/45/45 46/46/46
f 48/48/48 47/47/47 49/49/49
f 47/47/47 50/50/50 49/49/49

