g NewMesh_tris_24
v 0.6147307 0.1662386 -0.8327151
v -0.2903625 -0.9998869 0.6562203
v 0.9223301 -0.907937 0.3092744
v 0.6876876 0.3694854 -0.823343
v 0.1386143 0.3159592 -1.175559
v 0.9629818 0.713746 0.5507231
v 0.09748618 0.1238118 -1.09876
v -0.4512474 0.1422987 -0.9247016
v -1.043888 0.1237748 -0.5968506
v -0.4520368 0.3031819 -0.9607571
v -1.055499 0.2705219 -0.6024682
v -1.042279 -0.05335952 0.0761471
v -0.462938 0.6869466 1.106038
v -1.004152 0.03537574 0.4249778
v -0.9252554 0.252175 0.1681162
v -1.042279 -0.05335952 0.0761471
v -0.2903625 -0.9998869 0.6562203
v -0.2903625 -0.9998869 0.6562203
v -1.055499 0.2705219 -0.6024682
v -1.043888 0.1237748 -0.5968506
v 0.6876876 0.3694854 -0.823343
v 0.9629818 0.713746 0.5507231
v -0.462938 0.6869466 1.106038
v -0.9252554 0.252175 0.1681162
v -0.4520368 0.3031819 -0.9607571
v -1.055499 0.2705219 -0.6024682
v 0.1386143 0.3159592 -1.175559

vn 0.5171164 -0.515299 -0.6834163
vn -0.4667003 -0.8452472 -0.2602849
vn 0.3814689 -0.6349828 -0.6717727
vn 0.6253963 0.5396979 -0.5635655
vn 0.08558307 0.4383848 -0.8947036
vn 0.476908 0.8253272 -0.3023145
vn 0.02366351 -0.8066429 -0.5905653
vn -0.2683892 -0.5676905 -0.778264
vn -0.7556491 -0.4165004 -0.5054919
vn -0.3500313 0.6060491 -0.7142707
vn -0.7252632 0.5746652 -0.3791479
vn -0.9660717 -0.2569764 0.02586476
vn -0.5783684 0.8081894 0.1109958
vn -0.9254812 -0.02388364 0.3780403
vn -0.6743864 0.7383738 -0.002709884
vn -0.9660717 -0.2569764 0.02586476
vn -0.4667003 -0.8452472 -0.2602849
vn -0.4667003 -0.8452472 -0.2602849
vn -0.7252632 0.5746652 -0.3791479
vn -0.7556491 -0.4165004 -0.5054919
vn 0.6253963 0.5396979 -0.5635655
vn 0.476908 0.8253272 -0.3023145
vn -0.5783684 0.8081894 0.1109958
vn -0.6743864 0.7383738 -0.002709884
vn -0.3500313 0.6060491 -0.7142707
vn -0.7252632 0.5746652 -0.3791479
vn 0.08558307 0.4383848 -0.8947036

vt 0.63902 0.656796
vt 0.47812 0.809702
vt 0.611499 0.82444
vt 0.660587 0.647105
vt 0.607211 0.59765
vt 0.771741 0.753808
vt 0.595016 0.616754
vt 0.5375 0.616425
vt 0.470444 0.628075
vt 0.537319 0.594027
vt 0.463625 0.615459
vt 0.432331 0.681353
vt 0.30292 0.739863
vt 0.40582 0.702436
vt 0.399458 0.667254
vt 0.432331 0.681353
vt 0.47812 0.809702
vt 0.47812 0.809702
vt 0.463625 0.615459
vt 0.470444 0.628075
vt 0.666965 0.873963
vt 0.849678 0.840605
vt 0.846474 0.643645
vt 0.701164 0.632217
vt 0.592313 0.746486
vt 0.603621 0.655894
vt 0.596891 0.827203

vt1 0.1726289 0.7034979
vt1 0.6042461 0.8608914
vt1 0.3635939 0.9966553
vt1 0.1244231 0.7040225
vt1 0.1795659 0.5625627
vt1 0.00390625 0.9966553
vt1 0.2196033 0.5872603
vt1 0.327942 0.5330656
vt1 0.4688295 0.4791718
vt1 0.3090779 0.4994077
vt1 0.4580914 0.4479062
vt1 0.5942286 0.566569
vt1 0.3963953 0.00390625
vt1 0.4854423 0.2146086
vt1 0.4213516 0.2501577
vt1 0.4885532 0.2912614
vt1 0.7451648 0.1603323
vt1 0.7451648 0.1603323
vt1 0.378954 0.4233488
vt1 0.411841 0.4303312
vt1 0.00390625 0.3202049
vt1 0.05635216 0.00390625
vt1 0.3963953 0.00390625
vt1 0.4213516 0.2501577
vt1 0.224409 0.4439999
vt1 0.378954 0.4233488
vt1 0.08628549 0.438239

vt2 0.1726289 0.7034979
vt2 0.6042461 0.8608914
vt2 0.3635939 0.9966553
vt2 0.1244231 0.7040225
vt2 0.1795659 0.5625627
vt2 0.00390625 0.9966553
vt2 0.2196033 0.5872603
vt2 0.327942 0.5330656
vt2 0.4688295 0.4791718
vt2 0.3090779 0.4994077
vt2 0.4580914 0.4479062
vt2 0.5942286 0.566569
vt2 0.3963953 0.00390625
vt2 0.4854423 0.2146086
vt2 0.4213516 0.2501577
vt2 0.4885532 0.2912614
vt2 0.7451648 0.1603323
vt2 0.7451648 0.1603323
vt2 0.378954 0.4233488
vt2 0.411841 0.4303312
vt2 0.00390625 0.3202049
vt2 0.05635216 0.00390625
vt2 0.3963953 0.00390625
vt2 0.4213516 0.2501577
vt2 0.224409 0.4439999
vt2 0.378954 0.4233488
vt2 0.08628549 0.438239


usemtl CSE_BigRock_01_Dif
usemap CSE_BigRock_01_Dif
f 2/2/2 1/1/1 3/3/3
f 3/3/3 1/1/1 4/4/4
f 5/5/5 4/4/4 1/1/1
f 3/3/3 4/4/4 6/6/6
f 5/5/5 1/1/1 7/7/7
f 8/8/8 7/7/7 1/1/1
f 2/2/2 8/8/8 1/1/1
f 2/2/2 9/9/9 8/8/8
f 9/9/9 10/10/10 8/8/8
f 10/10/10 5/5/5 7/7/7
f 10/10/10 7/7/7 8/8/8
f 9/9/9 11/11/11 10/10/10
f 2/2/2 12/12/12 9/9/9
f 14/14/14 13/13/13 15/15/15
f 14/14/14 15/15/15 16/16/16
f 17/17/17 14/14/14 16/16/16
f 14/14/14 18/18/18 13/13/13
f 16/16/16 15/15/15 19/19/19
f 16/16/16 19/19/19 20/20/20
f 22/22/22 21/21/21 23/23/23
f 24/24/24 23/23/23 21/21/21
f 25/25/25 24/24/24 21/21/21
f 24/24/24 25/25/25 26/26/26
f 25/25/25 21/21/21 27/27/27

