g NewMesh_tris_18
v -0.2659984 1.226562 -0.2020581
v -0.1922734 1.093022 0.5366422
v -0.3752681 1.19551 0.06519984
v 0.2736051 1.026657 0.7194083
v 0.3575639 1.214788 -0.4700249
v 0.6992719 1.065751 0.3316847
v -0.09225358 0.5783355 0.7920032
v -0.4764552 0.968668 -0.1602983
v 0.534615 -0.9067026 0.0351865
v 0.2736051 1.026657 0.7194083
v 0.6992719 1.065751 0.3316847
v -0.09225358 0.5783355 0.7920032
v -0.1610263 -0.9680396 0.5788755
v -0.09225358 0.5783355 0.7920032
v -0.3752681 1.19551 0.06519984
v -0.1922734 1.093022 0.5366422
v -0.1610263 -0.9680396 0.5788755
v -0.4764552 0.968668 -0.1602983
v -0.6101501 -0.6328764 -0.4010412
v 0.3575639 1.214788 -0.4700249
v 0.534615 -0.9067026 0.0351865
v 0.6992719 1.065751 0.3316847
v 0.2020434 -0.6482115 -0.7500693
v 0.3575639 1.214788 -0.4700249
v -0.2659984 1.226562 -0.2020581
v 0.2020434 -0.6482115 -0.7500693
v -0.4764552 0.968668 -0.1602983
v -0.6101501 -0.6328764 -0.4010412

vn -0.3711205 0.8065058 -0.4602371
vn -0.5325632 0.6516317 0.5401413
vn -0.6481867 0.7243999 0.2347317
vn 0.2997863 0.5271433 0.7951404
vn 0.3546959 0.6600643 -0.6621979
vn 0.8092445 0.5107708 0.2902356
vn -0.2861379 -0.02024117 0.9579747
vn -0.9115204 0.2214282 -0.346555
vn 0.9494067 -0.1269575 0.2872437
vn 0.2997863 0.5271433 0.7951404
vn 0.8092445 0.5107708 0.2902356
vn -0.2861379 -0.02024117 0.9579747
vn -0.2038341 -0.1447688 0.9682426
vn -0.2861379 -0.02024117 0.9579747
vn -0.6481867 0.7243999 0.2347317
vn -0.5325632 0.6516317 0.5401413
vn -0.2038341 -0.1447688 0.9682426
vn -0.9115204 0.2214282 -0.346555
vn -0.9381572 0.1172447 -0.3257528
vn 0.3546959 0.6600643 -0.6621979
vn 0.9494067 -0.1269575 0.2872437
vn 0.8092445 0.5107708 0.2902356
vn 0.4112624 0.1018147 -0.9058129
vn 0.3546959 0.6600643 -0.6621979
vn -0.3711205 0.8065058 -0.4602371
vn 0.4112624 0.1018147 -0.9058129
vn -0.9115204 0.2214282 -0.346555
vn -0.9381572 0.1172447 -0.3257528

vt 0.722962 0.32847
vt 0.705207 0.376399
vt 0.726462 0.346806
vt 0.672819 0.374949
vt 0.691482 0.294328
vt 0.646516 0.343314
vt 0.680866 0.411933
vt 0.744457 0.331796
vt 0.558243 0.463911
vt 0.672819 0.374949
vt 0.646516 0.343314
vt 0.680866 0.411933
vt 0.610157 0.504976
vt 0.600211 0.27153
vt 0.670252 0.263576
vt 0.63598 0.250825
vt 0.555693 0.372917
vt 0.676614 0.286483
vt 0.633101 0.393109
vt 0.718272 0.478556
vt 0.753935 0.327656
vt 0.668318 0.440734
vt 0.799137 0.371753
vt 0.691482 0.294328
vt 0.722962 0.32847
vt 0.800835 0.214954
vt 0.744457 0.331796
vt 0.837009 0.265309

vt1 0.5709814 0.02343874
vt1 0.5330654 0.1915678
vt1 0.5255978 0.08258274
vt1 0.6106114 0.2869357
vt1 0.7374279 0.01938456
vt1 0.7427648 0.2361788
vt1 0.4353086 0.2945337
vt1 0.4764138 0.01829655
vt1 0.5106581 0.536454
vt1 0.00390625 0.668484
vt1 0.00390625 0.5223047
vt1 0.1192982 0.7607141
vt1 0.5150774 0.7605863
vt1 0.4353086 0.2945337
vt1 0.5255978 0.08258274
vt1 0.5330654 0.1915678
vt1 0.00390625 0.2945337
vt1 0.4764138 0.01829655
vt1 0.05247689 0.00390625
vt1 0.01015709 0.29844
vt1 0.5106581 0.536454
vt1 0.00390625 0.5223047
vt1 0.4887884 0.3118041
vt1 0.00390625 0.9885722
vt1 0.00390625 0.8166329
vt1 0.4827243 0.9885724
vt1 0.07110409 0.7646204
vt1 0.4827245 0.7646206

vt2 0.5709814 0.02343874
vt2 0.5330654 0.1915678
vt2 0.5255978 0.08258274
vt2 0.6106114 0.2869357
vt2 0.7374279 0.01938456
vt2 0.7427648 0.2361788
vt2 0.4353086 0.2945337
vt2 0.4764138 0.01829655
vt2 0.5106581 0.536454
vt2 0.00390625 0.668484
vt2 0.00390625 0.5223047
vt2 0.1192982 0.7607141
vt2 0.5150774 0.7605863
vt2 0.4353086 0.2945337
vt2 0.5255978 0.08258274
vt2 0.5330654 0.1915678
vt2 0.00390625 0.2945337
vt2 0.4764138 0.01829655
vt2 0.05247689 0.00390625
vt2 0.01015709 0.29844
vt2 0.5106581 0.536454
vt2 0.00390625 0.5223047
vt2 0.4887884 0.3118041
vt2 0.00390625 0.9885722
vt2 0.00390625 0.8166329
vt2 0.4827243 0.9885724
vt2 0.07110409 0.7646204
vt2 0.4827245 0.7646206


usemtl CSE_BigRock_01_Dif
usemap CSE_BigRock_01_Dif
f 2/2/2 1/1/1 3/3/3
f 4/4/4 1/1/1 2/2/2
f 4/4/4 5/5/5 1/1/1
f 4/4/4 6/6/6 5/5/5
f 4/4/4 2/2/2 7/7/7
f 3/3/3 1/1/1 8/8/8
f 10/10/10 9/9/9 11/11/11
f 12/12/12 9/9/9 10/10/10
f 13/13/13 9/9/9 12/12/12
f 15/15/15 14/14/14 16/16/16
f 15/15/15 17/17/17 14/14/14
f 18/18/18 17/17/17 15/15/15
f 18/18/18 19/19/19 17/17/17
f 21/21/21 20/20/20 22/22/22
f 23/23/23 20/20/20 21/21/21
f 25/25/25 24/24/24 26/26/26
f 25/25/25 26/26/26 27/27/27
f 27/27/27 26/26/26 28/28/28

